<?xml version="1.0" encoding="UTF-8" standalone="no"?>
<!-- Created with Inkscape (http://www.inkscape.org/) -->

<svg
   width="12.5mm"
   height="9mm"
   viewBox="0 0 12.5 9"
   version="1.1"
   id="svg1"
   inkscape:version="1.4.2 (f4327f4, 2025-05-13)"
   sodipodi:docname="only draw.svg"
   xmlns:inkscape="http://www.inkscape.org/namespaces/inkscape"
   xmlns:sodipodi="http://sodipodi.sourceforge.net/DTD/sodipodi-0.dtd"
   xmlns="http://www.w3.org/2000/svg"
   xmlns:svg="http://www.w3.org/2000/svg">
  <sodipodi:namedview
     id="namedview1"
     pagecolor="#ffffff"
     bordercolor="#000000"
     borderopacity="0.25"
     inkscape:showpageshadow="2"
     inkscape:pageopacity="0.0"
     inkscape:pagecheckerboard="0"
     inkscape:deskcolor="#d1d1d1"
     inkscape:document-units="mm"
     inkscape:zoom="5.6568542"
     inkscape:cx="34.383068"
     inkscape:cy="21.124815"
     inkscape:window-width="1600"
     inkscape:window-height="837"
     inkscape:window-x="-8"
     inkscape:window-y="-8"
     inkscape:window-maximized="1"
     inkscape:current-layer="layer1" />
  <defs
     id="defs1" />
  <g
     inkscape:label="Layer 1"
     inkscape:groupmode="layer"
     id="layer1"
     transform="translate(-64.02915,-120.38541)">
    <g
       id="g1"
       transform="matrix(0.15177676,0,0,0.16009592,54.311013,101.1122)">
      <path
         id="path13-7"
         style="fill:#000000;stroke-width:0.77473"
         d="m 118.27925,120.38562 c -8.7047,0 -15.7742,2.7184 -21.0505,9.6909 -0.1845,0.2175 -0.3451,0.4194 -0.47,0.5953 l -0.4728,0.6662 h 2.2019 l 0.045,0.033 c 0.01,-0.011 0.016,-0.023 0.024,-0.033 h 9.2433 c 10.5154,0 11.504,0.029 11.388,0.3311 -0.1028,0.2681 -4.2214,7.3451 -7.0241,12.0702 l -0.6078,1.0249 -4.0856,0.044 c -6.3322,0.069 -21.049,0.459 -23.5583,0.6246 l -2.2549,0.1485 1.5374,0.1473 c 0.8455,0.081 7.3716,0.2091 14.5024,0.2842 7.1308,0.075 12.9613,0.1942 12.9574,0.2639 -0.01,0.07 -0.5344,0.9921 -1.1786,2.0498 l -1.171,1.9228 -2.8698,-0.033 c -5.1601,-0.059 -37.2546,0.3775 -39.3563,0.5353 l -2.0498,0.1537 2.5623,0.1353 c 6.6739,0.352 20.9843,0.6126 30.3883,0.5529 5.7216,-0.036 10.4029,3e-4 10.4028,0.081 0,0.081 -0.4947,1.0031 -1.099,2.0499 l -1.0985,1.9029 -8.8942,0.126 c -12.766,0.1807 -14.4752,0.2253 -14.7335,0.3848 -0.1269,0.079 0.8585,0.2035 2.1896,0.2779 3.8481,0.2144 19.8875,0.4604 20.2771,0.4604 0.174,-0.01 0.2838,-0.033 0.2838,0.059 0,0.092 -0.8869,1.6344 -1.9705,3.427 -1.0836,1.7926 -2.2844,3.7853 -2.6688,4.4283 -0.3843,0.6431 -0.7202,1.2342 -0.8127,1.2915 -0.023,0.015 -0.07,0.01 -0.1309,-0.019 -0.6904,-0.7686 -1.3392,-1.5822 -1.9417,-2.4381 l -1.4889,1.049 c 5.264,7.4778 13.8398,11.9276 22.9846,11.9276 15.5129,0 28.108,-12.595 28.108,-28.1079 0,-15.513 -12.5951,-28.1084 -28.108,-28.1084 z m 0,1.8203 c 4.4071,0 8.5592,1.0818 12.2056,2.9947 0.5176,0.2905 1.0362,0.6038 1.5598,0.9413 0.3088,0.199 0.611,0.3736 0.8704,0.506 0.4129,0.2771 0.8179,0.5657 1.2138,0.8652 0.1863,0.1868 0.4301,0.4024 0.7046,0.6181 2.3374,1.8364 5.0775,5.2527 6.6415,8.2809 1.9744,3.8227 2.8044,7.3703 2.8044,11.9854 0,6.1467 -1.853,11.3837 -5.8419,16.5109 v 0 c -0.451,0.5796 -1.2199,1.4523 -1.3016,1.4601 -0.19,0.011 0.03,-0.6127 -2.549,-6.1282 -3.4013,-7.2765 -8.5079,-17.6292 -8.6913,-17.6199 -0.092,0.01 -0.6639,0.8578 -1.2711,1.8961 -0.6071,1.0383 -1.4695,2.5125 -1.9164,3.2761 l -0.8128,1.3884 3.0191,5.988 c 3.5854,7.1121 3.405,7.8288 2.9698,8.4931 l -0.032,0.01 -9.1216,0.051 -9.2133,-0.072 0.1429,-0.3888 c 0.039,-0.2553 2.4604,-4.3814 5.3375,-9.1728 2.8772,-4.7914 5.4647,-9.1268 5.7499,-9.6341 0.2852,-0.5074 1.625,-2.7673 2.9774,-5.022 1.3524,-2.2548 3.471,-5.8061 4.7077,-7.8918 l 2.2485,-3.7922 -14.3652,-0.1024 -14.2925,-0.1021 c 0.1741,-0.1526 0.3498,-0.3015 0.5268,-0.4468 0.01,-0.01 0.011,-0.01 0.016,-0.012 0.2041,-0.1671 0.4217,-0.3025 0.6298,-0.46 2.1217,-1.5559 4.6872,-2.7704 7.4273,-3.5592 2.3451,-0.596 4.8891,-0.8632 7.656,-0.8632 z m -22.0678,18.4892 c -1.6384,-0.2707 -21.3556,-0.2643 -23.9827,0.01 l -2.0498,0.2122 1.4349,0.056 c 0.7891,0.031 3.6025,0.1162 6.2518,0.1906 v 4e-4 c 4.9983,0.1395 9.8414,0.1002 15.9885,-0.1297 3.3045,-0.1235 3.4903,-0.15 2.3573,-0.3371 z m -9.5924,20.2786 c -3.0607,-0.1627 -10.8032,0.068 -10.8032,0.3223 v 0 c 0,0.096 1.3606,0.1675 3.0235,0.1598 1.88,-0.01 2.0863,-0.01 2.4774,-0.023 0.4184,-0.02 0.7592,-3e-4 0.8099,-0.01 l 0.4452,-0.015 0.2774,0.01 c 0.097,-0.015 0.2788,-0.012 3.0107,0.01 4.4298,0.033 4.8778,-0.2348 0.7591,-0.454 z m 31.5509,5.6722 c 9.8079,0.094 18.333,0.2678 18.333,0.3603 0,0.2812 -3.1301,2.7703 -5.0997,3.9944 -2.3405,1.4547 -4.7515,2.4413 -7.5699,3.0983 -1.7599,0.4102 -4.7438,0.6533 -7.1107,0.637 -4.6194,-0.2735 -9.0187,-1.7814 -12.8136,-4.2622 -0.5097,-0.3552 -0.9896,-0.6629 -1.4825,-1.0413 -1.0759,-0.8145 -2.1069,-1.694 -3.0531,-2.6736 -0.022,-0.04 -0.035,-0.073 -0.035,-0.097 0,-0.1138 8.1266,-0.1182 18.8313,-0.015 z"
         sodipodi:nodetypes="cccccccsscccccssscccccccssccsccsssccccssccccscccsssscscsscccccccsssccccccccccssccccssscsscccccccccsssccccscc" />
      <ellipse
         style="fill:#000000;stroke:#91781a;stroke-width:0;stroke-dasharray:none"
         id="path1-7"
         cx="82.389015"
         cy="161.28435"
         rx="8.5143404"
         ry="0.63866937" />
      <ellipse
         style="fill:#000000;stroke:#91781a;stroke-width:0;stroke-dasharray:none"
         id="path1"
         cx="86.076462"
         cy="140.84216"
         rx="17.345779"
         ry="0.62855548" />
    </g>
  </g>
</svg>
